<?xml version="1.0" encoding="iso-8859-1"?>
<!-- Generator: Adobe Illustrator 19.0.0, SVG Export Plug-In . SVG Version: 6.00 Build 0)  -->
<svg version="1.1" id="Layer_1" xmlns="http://www.w3.org/2000/svg" xmlns:xlink="http://www.w3.org/1999/xlink" x="0px" y="0px"
	 viewBox="0 0 512 512" style="enable-background:new 0 0 512 512;" xml:space="preserve">
<g>
	<g>
		<path d="M0,0v512h512V0H0z M143.083,292.416c-4.181,4.181-9.643,6.251-15.083,6.251c-5.461,0-10.923-2.069-15.083-6.251
			l-85.333-85.312c-1.963-1.963-3.52-4.331-4.608-6.955c-2.155-5.205-2.155-11.072,0-16.299c1.088-2.603,2.645-4.971,4.608-6.933
			l85.333-85.333c8.32-8.32,21.824-8.32,30.165,0c8.32,8.341,8.32,21.845,0,30.165l-48.917,48.917H320
			c11.776,0,21.333,9.557,21.333,21.333c0,11.797-9.557,21.333-21.333,21.333H94.165l48.917,48.917
			C151.403,270.592,151.403,284.096,143.083,292.416z M234.667,341.333H192c-11.797,0-21.333-9.536-21.333-21.333
			c0-11.776,9.536-21.333,21.333-21.333h42.667c11.776,0,21.333,9.557,21.333,21.333C256,331.797,246.443,341.333,234.667,341.333z
			 M298.667,320c0-11.776,9.536-21.333,21.333-21.333h42.667c11.776,0,21.333,9.557,21.333,21.333
			c0,11.797-9.557,21.333-21.333,21.333H320C308.203,341.333,298.667,331.797,298.667,320z M489.024,328.149
			c-1.088,2.624-2.645,4.992-4.629,6.955l-85.312,85.312c-4.181,4.181-9.643,6.251-15.083,6.251c-5.461,0-10.923-2.069-15.083-6.251
			c-8.341-8.32-8.341-21.824,0-30.165l50.389-50.389c-8.128-3.008-13.973-10.688-13.973-19.861c0-9.173,5.845-16.832,13.973-19.84
			l-50.389-50.411c-8.341-8.32-8.341-21.824,0-30.165c8.32-8.32,21.824-8.32,30.165,0l85.312,85.333
			c1.984,1.963,3.541,4.331,4.629,6.933C491.179,317.077,491.179,322.944,489.024,328.149z"/>
	</g>
</g>
<g>
</g>
<g>
</g>
<g>
</g>
<g>
</g>
<g>
</g>
<g>
</g>
<g>
</g>
<g>
</g>
<g>
</g>
<g>
</g>
<g>
</g>
<g>
</g>
<g>
</g>
<g>
</g>
<g>
</g>
</svg>
